<?xml version="1.0" encoding="UTF-8"?>
<svg xmlns="http://www.w3.org/2000/svg" width="546" height="252" viewBox="0 0 546 252" fill="none" shape-rendering="crispEdges" role="img" aria-labelledby="title desc">
<title id="title">06 拖尾云 / windswept</title>
<desc id="desc">Original block-style pixel cloud. Transparent background; 14-unit square grid; editable vector rectangles.</desc>
<g id="cloud-06" transform="translate(28 28)">
  <g fill="#B6C7DA">
    <rect x="70" y="28" width="98" height="42"/>
    <rect x="28" y="70" width="196" height="42"/>
    <rect x="0" y="112" width="322" height="28"/>
    <rect x="0" y="140" width="406" height="14"/>
    <rect x="56" y="154" width="434" height="28"/>
    <rect x="84" y="182" width="196" height="14"/>
  </g>
  <g fill="#D4E0EC">
    <rect x="70" y="14" width="98" height="42"/>
    <rect x="28" y="56" width="196" height="42"/>
    <rect x="0" y="98" width="322" height="28"/>
    <rect x="0" y="126" width="406" height="14"/>
    <rect x="56" y="140" width="434" height="28"/>
    <rect x="84" y="168" width="196" height="14"/>
  </g>
  <g fill="#EEF4FA">
    <rect x="70" y="0" width="98" height="42"/>
    <rect x="28" y="42" width="196" height="42"/>
    <rect x="0" y="84" width="322" height="28"/>
    <rect x="0" y="112" width="406" height="14"/>
    <rect x="56" y="126" width="434" height="28"/>
    <rect x="84" y="154" width="196" height="14"/>
  </g>
  <g fill="#D4E0EC">
    <rect x="168" y="84" width="98" height="42"/>
    <rect x="280" y="126" width="126" height="28"/>
  </g>
  <g fill="#FFFFFF">
    <rect x="70" y="0" width="84" height="28"/>
    <rect x="28" y="42" width="56" height="28"/>
    <rect x="0" y="84" width="56" height="14"/>
  </g>
</g>
</svg>
