<?xml version="1.0" encoding="UTF-8"?>
<svg xmlns="http://www.w3.org/2000/svg" width="490" height="196" viewBox="0 0 490 196" fill="none" shape-rendering="crispEdges" role="img" aria-labelledby="title desc">
<title id="title">02 长条云 / long</title>
<desc id="desc">Original block-style pixel cloud. Transparent background; 14-unit square grid; editable vector rectangles.</desc>
<g id="cloud-02" transform="translate(28 28)">
  <g fill="#B6C7DA">
    <rect x="182" y="28" width="112" height="28"/>
    <rect x="70" y="56" width="294" height="28"/>
    <rect x="0" y="84" width="434" height="42"/>
    <rect x="42" y="126" width="336" height="14"/>
  </g>
  <g fill="#D4E0EC">
    <rect x="182" y="14" width="112" height="28"/>
    <rect x="70" y="42" width="294" height="28"/>
    <rect x="0" y="70" width="434" height="42"/>
    <rect x="42" y="112" width="336" height="14"/>
  </g>
  <g fill="#EEF4FA">
    <rect x="182" y="0" width="112" height="28"/>
    <rect x="70" y="28" width="294" height="28"/>
    <rect x="0" y="56" width="434" height="42"/>
    <rect x="42" y="98" width="336" height="14"/>
  </g>
  <g fill="#D4E0EC">
    <rect x="308" y="56" width="84" height="28"/>
    <rect x="168" y="84" width="126" height="28"/>
  </g>
  <g fill="#FFFFFF">
    <rect x="182" y="0" width="98" height="14"/>
    <rect x="70" y="28" width="112" height="14"/>
    <rect x="0" y="56" width="70" height="14"/>
  </g>
</g>
</svg>
